<svg width="468" height="160" viewBox="0 0 468 160" fill="none" xmlns="http://www.w3.org/2000/svg">
<path d="M59.1541 160C24.2946 160 0 135.554 0 100.849C0 66.1448 24.2946 41.6987 59.1541 41.6987C94.0135 41.6987 118.308 66.1448 118.308 100.849C118.308 135.554 94.0135 160 59.1541 160ZM59.1541 144.066C81.9753 144.066 99.7325 126.605 99.7325 100.849C99.7325 75.0937 81.9753 57.6323 59.1541 57.6323C36.3328 57.6323 18.5757 75.0937 18.5757 100.849C18.5757 126.605 36.0818 144.066 59.1541 144.066Z" fill="white"/>
<path d="M129.383 44.0997H149.028V61.5611C154.485 51.3025 166.927 41.6987 183.298 41.6987C197.923 41.6987 209.929 49.7746 215.386 62.2159C222.152 51.3025 234.813 41.6987 252.275 41.6987C276.722 41.6987 290.474 58.7236 290.474 83.1697V157.599H270.829V86.4437C270.829 70.2918 263.626 58.2871 247.036 58.2871C233.285 58.2871 219.751 69.4188 219.751 88.8446V157.599H200.106V86.4437C200.106 70.2918 192.903 58.2871 176.313 58.2871C162.562 58.2871 149.028 69.4188 149.028 88.8446V157.599H129.383V44.0997Z" fill="white"/>
<path d="M308.537 44.0997H328.182V62.4342C334.076 51.7391 346.518 41.6987 363.98 41.6987C388.646 41.6987 402.834 59.3784 402.834 84.0427V157.599H383.189V87.9716C383.189 70.7284 375.331 58.0688 357.432 58.0688C342.37 58.0688 328.182 70.0736 328.182 90.3725V157.599H308.537V44.0997Z" fill="white"/>
<path d="M419.586 0H441.414V21.6085H419.586V0ZM440.312 157.59H420.667V44.0901H440.312V157.59Z" fill="white"/>
<path d="M457.151 157.506V156.185H466.34V150.729H467.519V157.506H457.151Z" fill="white" fill-opacity="0.5"/>
<path d="M457 141.382C457 138.599 459.227 136.623 462.348 136.623C465.469 136.623 467.696 138.599 467.696 141.382C467.696 144.165 465.469 146.14 462.348 146.14C459.227 146.14 457 144.154 457 141.382ZM458.212 141.382C458.212 143.411 459.936 144.776 462.348 144.776C464.76 144.776 466.484 143.411 466.484 141.382C466.484 139.352 464.771 137.988 462.348 137.988C459.925 137.988 458.212 139.341 458.212 141.382Z" fill="white" fill-opacity="0.5"/>
<path d="M467.533 122.378V123.524L459.075 129.352H467.533V130.661H457.165V129.286L465.274 123.677H457.165V122.378H467.533Z" fill="white" fill-opacity="0.5"/>
<path d="M462.315 107.375H467.532V108.554H465.83C466.943 109.067 467.696 110.202 467.696 111.643C467.696 114.36 465.535 116.412 462.348 116.412C459.161 116.412 457 114.338 457 111.599C457 109.405 458.222 107.877 460.187 107.474V108.871C458.975 109.242 458.212 110.147 458.212 111.588C458.212 113.694 459.958 115.058 462.348 115.058C464.738 115.058 466.484 113.705 466.484 111.632C466.484 109.787 465.207 108.718 463.472 108.587V111.413H462.326V107.375H462.315Z" fill="white" fill-opacity="0.5"/>
<path d="M457.151 94.1955H458.329V99.8377H461.615V94.763H462.782V99.8377H466.351V94.1955H467.53V101.147H457.162V94.1955H457.151Z" fill="white" fill-opacity="0.5"/>
<path d="M467.533 84.9536L457.165 88.937V87.5291L466.06 84.2224L457.165 80.8938V79.5296L467.533 83.513V84.9645V84.9536Z" fill="white" fill-opacity="0.5"/>
<path d="M467.533 72.5188V73.8393H457.165V72.5188H467.533Z" fill="white" fill-opacity="0.5"/>
<path d="M458.343 61.7332H467.533V63.0537H458.343V66.6879H457.165V58.0772H458.343V61.7332Z" fill="white" fill-opacity="0.5"/>
<path d="M467.53 49.2602H463.208L457.151 53.2109V51.7812L462.095 48.5945L457.151 45.3969V44L463.208 47.9506H467.53V49.2602Z" fill="white" fill-opacity="0.5"/>
</svg>
