<svg width="445" height="160" viewBox="0 0 445 160" fill="none" xmlns="http://www.w3.org/2000/svg" role="img" aria-labelledby="title">
<title id="title">OMNI</title>
<path d="M59.1541 160C24.2946 160 0 135.554 0 100.849C0 66.1448 24.2946 41.6987 59.1541 41.6987C94.0135 41.6987 118.308 66.1448 118.308 100.849C118.308 135.554 94.0135 160 59.1541 160ZM59.1541 144.066C81.9753 144.066 99.7325 126.605 99.7325 100.849C99.7325 75.0937 81.9753 57.6323 59.1541 57.6323C36.3328 57.6323 18.5757 75.0937 18.5757 100.849C18.5757 126.605 36.0818 144.066 59.1541 144.066Z" fill="white"/>
<path d="M129.383 44.0997H149.028V61.5611C154.485 51.3025 166.927 41.6987 183.298 41.6987C197.923 41.6987 209.929 49.7746 215.386 62.2159C222.152 51.3025 234.813 41.6987 252.275 41.6987C276.722 41.6987 290.474 58.7236 290.474 83.1697V157.599H270.829V86.4437C270.829 70.2918 263.626 58.2871 247.036 58.2871C233.285 58.2871 219.751 69.4188 219.751 88.8446V157.599H200.106V86.4437C200.106 70.2918 192.903 58.2871 176.313 58.2871C162.562 58.2871 149.028 69.4188 149.028 88.8446V157.599H129.383V44.0997Z" fill="white"/>
<path d="M308.537 44.0997H328.182V62.4342C334.076 51.7391 346.518 41.6987 363.98 41.6987C388.646 41.6987 402.834 59.3784 402.834 84.0427V157.599H383.189V87.9716C383.189 70.7284 375.331 58.0688 357.432 58.0688C342.37 58.0688 328.182 70.0736 328.182 90.3725V157.599H308.537V44.0997Z" fill="white"/>
<path d="M419.586 0H441.414V21.6085H419.586V0ZM440.312 157.59H420.667V44.0901H440.312V157.59Z" fill="white"/>
</svg>
